<?xml version="1.0" standalone="no"?>
<!DOCTYPE svg PUBLIC "-//W3C//DTD SVG 20010904//EN"
 "http://www.w3.org/TR/2001/REC-SVG-20010904/DTD/svg10.dtd">
<svg version="1.0" xmlns="http://www.w3.org/2000/svg"
 width="72.000000pt" height="72.000000pt" viewBox="0 0 72.000000 72.000000"
 preserveAspectRatio="xMidYMid meet">

<g transform="translate(0.000000,72.000000) scale(0.100000,-0.100000)"
fill="#000000" stroke="none">
<path d="M0 360 l0 -360 360 0 360 0 0 360 0 360 -360 0 -360 0 0 -360z m470
206 c91 -48 139 -138 125 -234 -18 -123 -108 -202 -230 -202 l-55 0 0 70 0 70
35 0 c19 0 45 5 58 11 51 23 63 104 22 144 -20 21 -34 25 -80 25 l-55 0 0
-160 0 -160 -70 0 -70 0 0 103 c0 56 -3 160 -7 230 l-6 129 149 -4 c121 -3
156 -7 184 -22z"/>
</g>
</svg>
